<?xml version="1.0" encoding="UTF-8" standalone="no"?>
<!-- Created with Inkscape (http://www.inkscape.org/) -->

<svg
   version="1.0"
   width="228"
   height="475"
   viewBox="0 0 228.00001 475.00001"
   id="Layer_1"
   xml:space="preserve"
   sodipodi:docname="USB_icon.svg"
   inkscape:version="1.4.2 (f4327f4, 2025-05-13)"
   xmlns:inkscape="http://www.inkscape.org/namespaces/inkscape"
   xmlns:sodipodi="http://sodipodi.sourceforge.net/DTD/sodipodi-0.dtd"
   xmlns="http://www.w3.org/2000/svg"
   xmlns:svg="http://www.w3.org/2000/svg"><sodipodi:namedview
   id="namedview1"
   pagecolor="#ffffff"
   bordercolor="#000000"
   borderopacity="0.25"
   inkscape:showpageshadow="2"
   inkscape:pageopacity="0.0"
   inkscape:pagecheckerboard="0"
   inkscape:deskcolor="#d1d1d1"
   showgrid="false"
   inkscape:zoom="1.0422523"
   inkscape:cx="-116.57446"
   inkscape:cy="370.83152"
   inkscape:window-width="1920"
   inkscape:window-height="1009"
   inkscape:window-x="-8"
   inkscape:window-y="-8"
   inkscape:window-maximized="1"
   inkscape:current-layer="Layer_1" /><defs
   id="defs1337" />
<path
   d="M 116.12246,3.48754 85.287562,54.377219 H 107.28368 V 314.48847 l -56.142225,-50.6466 c -3.624936,-4.31022 -6.167833,-9.94971 -6.30869,-15.75092 0,-23.46821 -0.0064,-37.40472 -0.01707,-42.53467 10.394613,-3.47726 17.897388,-12.81776 17.897388,-23.92182 0,-14.04737 -11.960048,-25.44738 -26.704157,-25.44738 -14.750512,0 -26.706291,11.399 -26.706291,25.44738 0,11.10406 7.498506,20.44456 17.884582,23.92182 l -0.0075,42.03632 c 0,11.3929 6.558392,23.33092 14.246841,30.92923 -0.228359,-0.20747 -0.471657,-0.42308 0.0043,0.0122 0.189943,0.16069 59.559082,53.73434 59.559082,53.73434 3.6196,4.30106 6.14649,9.9375 6.29161,15.73464 v 29.42502 c -20.395469,3.90035 -35.761697,21.06597 -35.761697,41.65698 0,23.47635 19.966493,42.5062 44.590877,42.5062 24.63184,0 44.5994,-19.02985 44.5994,-42.5062 0,-20.59508 -15.37903,-37.76069 -35.79156,-41.66105 v -28.90938 c 0,-0.0743 0.004,-0.14849 0,-0.22375 v -63.94238 c 0.15473,-5.78594 2.68482,-11.41527 6.30869,-15.71226 0,0 59.36485,-53.56144 59.55693,-53.72722 0.47699,-0.42919 0.22836,-0.21561 0.004,-0.004 7.68739,-7.5983 14.24151,-19.54141 14.24151,-30.93634 l -0.01,-40.51077 h 17.90271 V 92.554899 H 169.5201 V 143.4578 h 17.87925 c 0,0 -0.0203,10.66978 -0.0203,41.00709 -0.13979,5.80222 -2.67948,11.44781 -6.30442,15.75599 l -56.15289,50.65778 V 54.377219 h 22.03133 z"
   id="path1334"
   style="stroke-width:1.04177" />
</svg>
