<?xml version="1.0"?>
<svg version="1.1" id="圖層_1" xmlns="http://www.w3.org/2000/svg" x="0" y="0" viewBox="0 0 100 100" xml:space="preserve"><path d="M74.342 10H37.136a5.069 5.069 0 0 0-5.069 5.069v11.99c0 1.001-.297 1.98-.852 2.813l-9.773 14.651a5.067 5.067 0 0 0-.852 2.813V54.5h5.077V63H20.59v21.931A5.069 5.069 0 0 0 25.659 90h48.683a5.069 5.069 0 0 0 5.069-5.069V15.069A5.07 5.07 0 0 0 74.342 10z" fill="#333"/><path fill="#e0e0e0" d="M36.372 14.134h6.886v14.671h-6.886z"/><path fill="#e0e0e0" d="M46.701 14.134h6.886v14.671h-6.886z"/><path fill="#e0e0e0" d="M57.715 14.134h6.886v14.671h-6.886z"/><path fill="#e0e0e0" d="M68.044 14.134h6.886v14.671h-6.886z"/><metadata xmlns:d="https://loading.io/stock/"><d:name>memory card</d:name><d:tags>micro sd,xd,cf,ms,flash memory,usb stick,memory card,camera</d:tags><d:license>by</d:license><d:slug>6atisx</d:slug></metadata></svg>